<?xml version="1.0" encoding="utf-8"?>
<svg viewBox="-2005.829 -299.374 3617.001 1557.67" xmlns="http://www.w3.org/2000/svg">
  <rect x="-2005.829" y="-299.374" width="3617.001" height="1557.67" style="stroke: rgb(0, 0, 0);"/>
  <path d="M 301.99 502.158 L 296.835 502.158 L 296.835 500.576 Q 296.835 499.468 296.638 499.165 Q 296.44 498.862 295.978 498.862 Q 295.477 498.862 295.22 499.271 Q 294.963 499.679 294.963 500.51 Q 294.963 501.578 295.253 502.118 Q 295.53 502.659 296.822 503.423 Q 300.527 505.625 301.489 507.036 Q 302.452 508.446 302.452 511.584 Q 302.452 513.865 301.918 514.946 Q 301.384 516.027 299.854 516.759 Q 298.325 517.49 296.295 517.49 Q 294.067 517.49 292.491 516.646 Q 290.916 515.803 290.428 514.498 Q 289.94 513.192 289.94 510.793 L 289.94 509.396 L 295.095 509.396 L 295.095 511.993 Q 295.095 513.192 295.313 513.535 Q 295.53 513.878 296.084 513.878 Q 296.638 513.878 296.908 513.443 Q 297.178 513.008 297.178 512.151 Q 297.178 510.266 296.664 509.686 Q 296.137 509.105 294.067 507.748 Q 291.997 506.376 291.325 505.757 Q 290.652 505.137 290.211 504.043 Q 289.769 502.949 289.769 501.248 Q 289.769 498.796 290.395 497.662 Q 291.021 496.528 292.419 495.889 Q 293.816 495.25 295.794 495.25 Q 297.956 495.25 299.479 495.948 Q 301.001 496.647 301.496 497.708 Q 301.99 498.77 301.99 501.314 Z M 316.953 495.698 L 316.953 517.042 L 311.403 517.042 L 311.403 508.077 L 309.742 508.077 L 309.742 517.042 L 304.191 517.042 L 304.191 495.698 L 309.742 495.698 L 309.742 503.331 L 311.403 503.331 L 311.403 495.698 Z M 319.181 495.698 L 328.436 495.698 L 328.436 499.969 L 324.731 499.969 L 324.731 504.017 L 328.198 504.017 L 328.198 508.077 L 324.731 508.077 L 324.731 512.771 L 328.805 512.771 L 328.805 517.042 L 319.181 517.042 Z M 342.793 495.698 L 342.793 517.042 L 337.928 517.042 L 335.041 507.339 L 335.041 517.042 L 330.4 517.042 L 330.4 495.698 L 335.041 495.698 L 338.152 505.309 L 338.152 495.698 Z M 354.605 495.698 L 357.782 517.042 L 352.1 517.042 L 351.823 513.206 L 349.832 513.206 L 349.503 517.042 L 343.755 517.042 L 346.576 495.698 Z M 351.665 509.422 Q 351.243 505.796 350.821 500.47 Q 349.977 506.587 349.766 509.422 Z M 371.123 495.698 L 371.123 517.042 L 366.259 517.042 L 363.371 507.339 L 363.371 517.042 L 358.731 517.042 L 358.731 495.698 L 363.371 495.698 L 366.483 505.309 L 366.483 495.698 Z M 378.901 495.698 L 378.901 517.042 L 373.351 517.042 L 373.351 495.698 Z M 393.865 503.555 L 388.315 503.555 L 388.315 501.617 Q 388.315 499.785 388.156 499.323 Q 387.998 498.862 387.405 498.862 Q 386.891 498.862 386.706 499.257 Q 386.522 499.653 386.522 501.288 L 386.522 511.531 Q 386.522 512.968 386.706 513.423 Q 386.891 513.878 387.444 513.878 Q 388.051 513.878 388.268 513.364 Q 388.486 512.85 388.486 511.36 L 388.486 508.829 L 387.365 508.829 L 387.365 505.585 L 393.865 505.585 L 393.865 517.042 L 390.371 517.042 L 389.857 515.513 Q 389.29 516.501 388.427 516.996 Q 387.563 517.49 386.39 517.49 Q 384.992 517.49 383.773 516.811 Q 382.553 516.132 381.92 515.13 Q 381.288 514.128 381.129 513.028 Q 380.971 511.927 380.971 509.725 L 380.971 503.384 Q 380.971 500.325 381.301 498.941 Q 381.63 497.557 383.193 496.403 Q 384.755 495.25 387.233 495.25 Q 389.672 495.25 391.281 496.251 Q 392.889 497.253 393.377 498.631 Q 393.865 500.009 393.865 502.632 Z M 427.443 495.698 L 427.443 517.042 L 422.578 517.042 L 419.691 507.339 L 419.691 517.042 L 415.05 517.042 L 415.05 495.698 L 419.691 495.698 L 422.802 505.309 L 422.802 495.698 Z M 441.431 502.158 L 436.276 502.158 L 436.276 500.576 Q 436.276 499.468 436.078 499.165 Q 435.88 498.862 435.419 498.862 Q 434.918 498.862 434.661 499.271 Q 434.404 499.679 434.404 500.51 Q 434.404 501.578 434.694 502.118 Q 434.971 502.659 436.263 503.423 Q 439.967 505.625 440.93 507.036 Q 441.892 508.446 441.892 511.584 Q 441.892 513.865 441.358 514.946 Q 440.824 516.027 439.295 516.759 Q 437.766 517.49 435.735 517.49 Q 433.507 517.49 431.932 516.646 Q 430.356 515.803 429.869 514.498 Q 429.381 513.192 429.381 510.793 L 429.381 509.396 L 434.536 509.396 L 434.536 511.993 Q 434.536 513.192 434.753 513.535 Q 434.971 513.878 435.524 513.878 Q 436.078 513.878 436.348 513.443 Q 436.619 513.008 436.619 512.151 Q 436.619 510.266 436.104 509.686 Q 435.577 509.105 433.507 507.748 Q 431.437 506.376 430.765 505.757 Q 430.093 505.137 429.651 504.043 Q 429.209 502.949 429.209 501.248 Q 429.209 498.796 429.836 497.662 Q 430.462 496.528 431.859 495.889 Q 433.257 495.25 435.234 495.25 Q 437.396 495.25 438.919 495.948 Q 440.442 496.647 440.936 497.708 Q 441.431 498.77 441.431 501.314 Z" transform="matrix(17.393904, 0, 0, 21.661821, -6528.560059, -10482.237305)" style="fill: rgb(255, 255, 255); white-space: pre;"/>
  <path style="fill:#5e9f41" id="star" d="M 507 198 L 577.534 415.918 L 806.583 415.66 L 621.127 550.082 L 692.152 767.84 L 507 633 L 321.848 767.84 L 392.873 550.082 L 207.417 415.66 L 436.466 415.918 L 507 198 Z"/>
  <circle style="fill:#000000" id="joystick_ball" cx="507" cy="441.5" r="35.5"/>
  <rect style="fill:#000000" id="joystick_stick" width="24" height="58" x="495" y="475"/>
  <rect style="fill:#000000" id="joystick_base" width="150" height="67.711" x="432" y="532" rx="10"/>
</svg>